<svg xmlns="http://www.w3.org/2000/svg" version="1.1" xmlns:xlink="http://www.w3.org/1999/xlink" xmlns:svgjs="http://svgjs.dev/svgjs" width="1000" height="1000" viewBox="0 0 1000 1000"><rect width="1000" height="1000" fill="#ffffff"></rect><g transform="matrix(0.7,0,0,0.7,149.57575757575756,282.1265587044535)"><svg viewBox="0 0 396 247" data-background-color="#ffffff" preserveAspectRatio="xMidYMid meet" height="623" width="1000" xmlns="http://www.w3.org/2000/svg" xmlns:xlink="http://www.w3.org/1999/xlink"><g id="tight-bounds" transform="matrix(1,0,0,1,0.2400000000000091,-0.09999999999999432)"><svg viewBox="0 0 395.52 247.2" height="247.2" width="395.52"><g><svg></svg></g><g><svg viewBox="0 0 395.52 247.2" height="247.2" width="395.52"><g transform="matrix(1,0,0,1,137.81243544303797,47.215199999999996)"><svg viewBox="0 0 119.89512911392403 152.7696" height="152.7696" width="119.89512911392403"><g><svg viewBox="0 0 119.89512911392403 152.7696" height="152.7696" width="119.89512911392403"><g><svg viewBox="0 0 119.89512911392403 152.7696" height="152.7696" width="119.89512911392403"><g><svg viewBox="0 0 119.89512911392403 152.7696" height="152.7696" width="119.89512911392403"><g id="textblocktransform"><svg viewBox="0 0 119.89512911392403 152.7696" height="152.7696" width="119.89512911392403" id="textblock"><g><svg viewBox="0 0 119.89512911392403 152.7696" height="152.7696" width="119.89512911392403"><g transform="matrix(1,0,0,1,0,0)"><svg width="119.89512911392403" viewBox="-1.5 -35 37.2 47.4" height="152.7696" data-palette-color="#113f67"><path d="M3.9 0L3.9-32.25 0.15-32.25 0.15-35 10.25-35 10.25-32.25 7.3-32.25 7.3 0Q7.45 6 0.1 12.4L0.1 12.4-1.5 10.45Q0.6 8.45 2.27 5.65 3.95 2.85 3.9 0L3.9 0ZM16.4-32.25L13.3-32.25 13.3-35 23.4-35 23.4-32.25 19.8-32.25 19.8-2.75 32.5-2.75 33.25-9 35.7-8.75 35.15-2.75 35.2-2.75 35.15-2.65 34.95 0 34.45-0.05 34.45 0 13.3 0 13.3-2.75 16.4-2.75 16.4-32.25Z" opacity="1" transform="matrix(1,0,0,1,0,0)" fill="#113f67" class="wordmark-text-0" data-fill-palette-color="primary" id="text-0"></path></svg></g></svg></g></svg></g></svg></g></svg></g></svg></g></svg></g><g><path d="M0 123.6c0-68.262 55.338-123.6 123.6-123.6 30.402 0 58.24 10.976 79.768 29.183l-11.147 0c-19.26-14.022-42.974-22.294-68.621-22.295-64.458 0-116.712 52.254-116.712 116.712 0 64.458 52.254 116.712 116.712 116.712 25.647 0 49.361-8.272 68.621-22.295l11.147 0c-21.528 18.206-49.366 29.183-79.768 29.183-68.262 0-123.6-55.338-123.6-123.6z" fill="#113f67" stroke="transparent" data-fill-palette-color="tertiary"></path></g></svg></g><defs></defs></svg><rect width="395.52" height="247.2" fill="none" stroke="none" visibility="hidden"></rect></g></svg></g></svg>